<?xml version="1.0" encoding="utf-8"?>
<!-- Generator: Adobe Illustrator 24.3.0, SVG Export Plug-In . SVG Version: 6.00 Build 0)  -->
<svg version="1.1" xmlns="http://www.w3.org/2000/svg" xmlns:xlink="http://www.w3.org/1999/xlink" x="0px" y="0px"
	 viewBox="0 0 500 500" style="enable-background:new 0 0 500 500;" xml:space="preserve">
<style type="text/css">
	.st0{fill:none;stroke:grey;stroke-width:5;stroke-miterlimit:10;}
		.path{fill:none;stroke:#000000;stroke-width:5;stroke-miterlimit:10;}
</style>
<g id="Layer_1">
	<path class="st0" d="M168.8,109.6h162.4l81.2,140.64l-81.2,140.64H168.8L87.6,250.24l70.1-121.42h162.4l68.54,118.72L320.1,371.66
		H179.9l-70.1-121.42l61.31-106.18h140.2l61.31,106.18l-61.31,106.18H188.69l-61.31-106.18l50.42-87.32h122.61l50.42,87.32
		l-50.42,87.32H199.58l-50.42-87.32c0,0,38.24-66.23,38.48-66.66c0.25-0.42,100.83,0,100.83,0l38.48,66.66l-38.48,66.66h-76.97
		l-38.48-66.66l28.79-49.87h76.97l28.79,49.87l-28.79,49.87h-57.58l-28.79-49.87l20.68-35.83h57.58l20.68,35.83l-20.68,35.83h-41.37
		l-20.68-35.83H250"/>
</g>
<g id="Layer_2">
	<path class="path" d="M168.8,109.36h162.4L412.4,250l-81.2,140.64H168.8L87.6,250l70.1-121.42h162.4l68.54,118.72L320.1,371.42
		H179.9L109.8,250l61.31-106.18h140.2L372.61,250l-61.31,106.18H188.69L127.39,250l50.42-87.32h122.61L350.83,250l-50.42,87.32
		H199.58L149.17,250c0,0,38.24-66.23,38.48-66.66c0.25-0.42,100.83,0,100.83,0L326.97,250l-38.48,66.66h-76.97L173.03,250
		l28.79-49.87h76.97L307.58,250l-28.79,49.87h-57.58L192.42,250l20.68-35.83h57.58L291.37,250l-20.68,35.83h-41.37L208.63,250H250"
		/>
</g>
</svg>
