<?xml version="1.0" encoding="utf-8"?>
<!-- Generator: Adobe Illustrator 24.3.0, SVG Export Plug-In . SVG Version: 6.00 Build 0)  -->
<svg version="1.1" xmlns="http://www.w3.org/2000/svg" xmlns:xlink="http://www.w3.org/1999/xlink" x="0px" y="0px"
	 viewBox="0 0 250 250" style="enable-background:new 0 0 250 250;" xml:space="preserve">
<style type="text/css">
	.st0{fill:#FFFFFF;stroke:#000000;stroke-width:3;stroke-miterlimit:10;}
</style>
<g id="background">
	<ellipse class="st0" cx="125" cy="125" rx="118.99" ry="116.43"/>
</g>
<g id="title">
	<g>
		<path d="M38.89,139.39l17.68-1.11c0.38,2.87,1.16,5.06,2.34,6.56c1.91,2.43,4.65,3.65,8.2,3.65c2.65,0,4.7-0.62,6.13-1.87
			s2.15-2.69,2.15-4.33c0-1.56-0.68-2.95-2.05-4.18c-1.37-1.23-4.54-2.39-9.52-3.49c-8.15-1.83-13.96-4.27-17.43-7.3
			c-3.5-3.04-5.25-6.9-5.25-11.61c0-3.09,0.9-6.01,2.69-8.76c1.79-2.75,4.48-4.91,8.08-6.48c3.6-1.57,8.52-2.36,14.79-2.36
			c7.68,0,13.54,1.43,17.58,4.29c4.03,2.86,6.43,7.4,7.2,13.64l-17.51,1.03c-0.47-2.71-1.44-4.68-2.93-5.91
			c-1.49-1.23-3.55-1.85-6.17-1.85c-2.16,0-3.79,0.46-4.88,1.37c-1.09,0.92-1.64,2.03-1.64,3.34c0,0.96,0.45,1.82,1.35,2.58
			c0.88,0.79,2.95,1.53,6.23,2.21c8.12,1.75,13.94,3.52,17.45,5.31c3.51,1.79,6.07,4.01,7.67,6.67s2.4,5.62,2.4,8.9
			c0,3.86-1.07,7.41-3.2,10.66s-5.11,5.72-8.94,7.4c-3.83,1.68-8.65,2.52-14.48,2.52c-10.23,0-17.31-1.97-21.25-5.91
			S39.41,145.46,38.89,139.39z"/>
		<path d="M93.7,99.15h19.42l13.53,43.27l13.36-43.27h18.86l-22.33,60.13h-20.14L93.7,99.15z"/>
		<path d="M189.11,137.5v-12.51h28.71v25.63c-5.5,3.75-10.36,6.3-14.58,7.65s-9.24,2.03-15.03,2.03c-7.14,0-12.95-1.22-17.45-3.65
			s-7.98-6.06-10.46-10.87s-3.71-10.34-3.71-16.57c0-6.56,1.35-12.27,4.06-17.12c2.71-4.85,6.67-8.54,11.89-11.05
			c4.07-1.94,9.56-2.91,16.45-2.91c6.64,0,11.61,0.6,14.91,1.8c3.29,1.2,6.03,3.07,8.2,5.6c2.17,2.53,3.81,5.74,4.9,9.62l-17.92,3.2
			c-0.74-2.27-1.99-4.01-3.75-5.21c-1.76-1.2-4.01-1.8-6.75-1.8c-4.07,0-7.32,1.42-9.74,4.25s-3.63,7.31-3.63,13.43
			c0,6.51,1.22,11.16,3.67,13.95s5.86,4.18,10.23,4.18c2.08,0,4.06-0.3,5.95-0.9s4.05-1.63,6.48-3.08v-5.66H189.11z"/>
	</g>
</g>
</svg>
